<?xml version="1.0" standalone="no"?>
<!DOCTYPE svg PUBLIC "-//W3C//DTD SVG 20010904//EN"
 "http://www.w3.org/TR/2001/REC-SVG-20010904/DTD/svg10.dtd">
<svg version="1.0" xmlns="http://www.w3.org/2000/svg"
 width="1141.000000pt" height="1141.000000pt" viewBox="0 0 1141.000000 1141.000000"
 preserveAspectRatio="xMidYMid meet">
<metadata>
Created by potrace 1.11, written by Peter Selinger 2001-2013
</metadata>
<g transform="translate(0.000000,1141.000000) scale(0.100000,-0.100000)"
fill="#000000" stroke="none">
<path d="M8120 11389 c-36 -11 -74 -24 -85 -29 -11 -6 -139 -53 -285 -106
-146 -52 -287 -104 -315 -114 -439 -158 -454 -165 -503 -228 -42 -52 -65 -129
-59 -194 2 -33 43 -160 107 -333 94 -257 153 -418 194 -535 9 -25 20 -54 25
-65 5 -11 23 -60 40 -108 45 -127 65 -168 103 -204 54 -52 114 -77 187 -79 61
-2 86 5 341 97 151 55 304 111 340 124 36 13 126 46 200 73 74 28 181 67 237
87 163 59 235 143 237 275 1 65 -2 76 -47 200 -19 52 -107 295 -196 539 -89
244 -169 457 -177 473 -60 116 -205 169 -344 127z"/>
<path d="M6465 10779 c-27 -4 -219 -69 -425 -144 -438 -161 -549 -201 -610
-222 -146 -50 -211 -97 -251 -182 -33 -71 -33 -142 0 -236 145 -406 362 -1002
391 -1072 18 -43 90 -111 142 -133 56 -24 154 -29 204 -9 16 6 263 96 549 200
286 104 534 196 552 204 44 21 98 75 124 127 24 45 32 153 17 208 -16 54 -397
1090 -413 1121 -50 95 -168 153 -280 138z"/>
<path d="M4640 10126 c-943 -342 -1032 -375 -1076 -401 -24 -14 -56 -44 -72
-68 -71 -105 -73 -170 -7 -352 25 -71 50 -139 55 -150 5 -11 29 -76 53 -145
139 -386 219 -607 227 -625 4 -11 14 -36 21 -55 20 -56 60 -106 111 -139 51
-33 135 -56 172 -47 13 3 65 33 116 67 111 74 296 164 435 212 100 34 314 90
390 102 22 3 67 10 100 15 33 5 74 11 92 12 65 5 161 97 183 176 22 79 13 133
-51 309 -33 92 -80 222 -104 288 -24 66 -62 172 -85 235 -24 63 -51 138 -60
165 -110 315 -138 362 -239 408 -78 35 -152 33 -261 -7z"/>
<path d="M8808 9682 c-48 -6 -1151 -412 -1191 -438 -106 -70 -145 -206 -97
-341 12 -35 106 -294 209 -577 209 -574 213 -582 318 -631 48 -23 66 -26 127
-23 62 3 138 28 601 197 292 106 548 201 571 211 131 57 198 212 151 351 -47
137 -379 1043 -399 1089 -38 84 -116 145 -201 156 -23 3 -46 6 -52 7 -5 2 -22
1 -37 -1z"/>
<path d="M2975 9521 c-28 -9 -291 -104 -585 -211 l-535 -195 -51 -50 c-36 -36
-56 -66 -69 -104 -31 -94 -21 -138 125 -536 73 -198 152 -414 175 -480 98
-272 108 -295 160 -346 46 -46 114 -75 185 -78 57 -2 53 -3 392 120 62 23 160
58 218 79 525 189 577 209 622 237 52 32 103 103 115 161 10 45 5 129 -11 174
-47 137 -389 1068 -401 1093 -58 118 -209 179 -340 136z"/>
<path d="M7065 9053 c-25 -6 -367 -128 -415 -148 -36 -14 -281 -104 -425 -155
-303 -108 -317 -114 -354 -154 l-24 -26 49 -1 c27 -1 60 -2 74 -4 14 -1 57 -5
95 -9 77 -8 104 -11 153 -20 17 -3 47 -8 65 -12 74 -12 232 -56 338 -94 480
-172 848 -507 984 -895 12 -36 25 -69 29 -72 8 -8 56 24 90 61 46 50 70 112
70 186 0 60 -17 111 -204 625 -112 308 -214 576 -226 596 -28 46 -89 94 -140
111 -41 14 -125 20 -159 11z"/>
<path d="M1315 8912 c-24 -3 -480 -163 -615 -217 -19 -7 -66 -25 -105 -39 -64
-22 -290 -105 -391 -141 -137 -51 -211 -161 -199 -299 3 -31 8 -63 12 -69 6
-10 45 -118 79 -217 8 -25 19 -54 24 -65 5 -11 27 -69 49 -130 131 -365 205
-569 232 -635 54 -139 143 -203 275 -201 56 0 73 6 972 335 251 91 293 117
338 205 23 45 28 67 28 125 -1 65 -12 102 -143 461 -78 215 -146 399 -151 410
-5 11 -32 85 -61 165 -55 155 -73 191 -116 235 -54 53 -150 86 -228 77z"/>
<path d="M9380 7945 c-19 -7 -174 -63 -345 -125 -170 -61 -319 -115 -330 -120
-11 -5 -54 -21 -95 -35 -351 -125 -367 -132 -411 -183 -50 -57 -73 -117 -72
-192 0 -57 14 -102 118 -385 65 -176 126 -342 135 -370 45 -127 140 -385 158
-426 25 -58 83 -115 142 -141 70 -31 141 -30 235 4 44 16 87 30 95 33 18 5 81
27 275 100 83 31 157 58 165 60 36 10 516 188 542 201 49 25 89 66 116 119 21
41 26 64 27 125 0 66 -6 92 -53 220 -29 80 -57 154 -62 165 -5 11 -72 195
-149 408 -78 213 -148 401 -156 416 -22 43 -100 108 -152 125 -56 19 -136 20
-183 1z"/>
<path d="M3660 7809 c-40 -6 -212 -64 -355 -119 -27 -11 -222 -83 -433 -159
-231 -84 -397 -150 -418 -166 -66 -50 -108 -143 -105 -228 2 -55 5 -65 240
-712 95 -258 183 -486 196 -507 50 -75 134 -119 229 -120 49 0 90 11 211 55
83 30 251 92 375 137 124 45 232 84 240 87 19 8 20 8 53 17 15 5 27 11 27 15
0 3 -19 29 -41 56 -187 226 -277 507 -276 860 0 176 21 316 67 455 31 90 93
228 125 273 21 30 19 34 -17 45 -55 17 -71 18 -118 11z"/>
<path d="M5435 7773 c-85 -10 -210 -37 -288 -64 -269 -92 -467 -287 -502 -494
-44 -263 97 -476 418 -629 l79 -37 141 52 c78 28 228 83 332 121 105 38 222
81 260 95 134 49 214 165 202 292 -4 48 -61 216 -189 561 -36 97 -36 98 -87
103 -51 5 -319 5 -366 0z"/>
<path d="M6005 7722 c4 -9 11 -30 17 -47 5 -16 14 -39 18 -50 5 -11 28 -72 50
-135 114 -317 125 -340 183 -384 83 -64 180 -77 289 -40 107 36 104 29 58 117
-87 167 -219 334 -340 429 -58 46 -139 86 -218 109 -59 17 -63 17 -57 1z"/>
<path d="M7695 7332 c-11 -2 -23 -7 -28 -11 -4 -4 -9 -54 -11 -112 -4 -154
-53 -264 -163 -374 -93 -92 -208 -137 -343 -134 -130 4 -216 37 -288 111 -47
48 -122 147 -122 160 0 26 -182 -47 -236 -95 -61 -54 -86 -106 -92 -192 -4
-68 -1 -78 76 -290 44 -121 83 -227 86 -235 4 -8 37 -26 74 -39 412 -145 693
-306 891 -513 34 -36 69 -75 77 -87 12 -17 19 -19 35 -10 11 6 28 12 37 14 25
5 563 203 591 218 48 24 109 97 127 150 35 105 37 99 -171 667 -31 85 -67 184
-80 220 -154 428 -171 462 -240 507 -60 39 -158 59 -220 45z"/>
<path d="M1825 7151 c-109 -38 -225 -81 -440 -159 -60 -22 -218 -79 -350 -127
-132 -48 -255 -96 -272 -107 -79 -47 -133 -147 -133 -245 0 -40 77 -264 246
-718 25 -66 47 -127 49 -135 2 -8 17 -51 33 -95 17 -44 45 -119 62 -167 56
-151 141 -220 273 -221 68 -1 91 6 422 127 362 132 489 179 660 241 167 61
211 95 251 193 40 99 37 109 -185 720 -110 304 -210 570 -221 591 -21 41 -85
99 -134 120 -16 6 -57 14 -90 17 -53 4 -76 0 -171 -35z"/>
<path d="M6000 6709 c-53 -8 -614 -210 -633 -228 -8 -8 127 -45 568 -156 243
-62 346 -89 438 -117 20 -6 39 -9 42 -6 7 6 -96 295 -127 356 -53 107 -171
169 -288 151z"/>
<path d="M10045 6233 c-26 -7 -114 -36 -195 -66 -36 -14 -247 -91 -470 -171
-223 -81 -425 -155 -449 -164 -24 -9 -67 -39 -95 -67 -80 -78 -103 -169 -72
-280 18 -64 380 -1056 406 -1111 39 -84 153 -154 251 -154 40 0 82 12 239 70
47 17 146 53 220 79 74 27 146 54 160 59 14 6 115 43 225 83 110 39 233 83
273 98 100 36 160 83 196 155 45 88 42 155 -18 321 -26 72 -51 139 -56 150 -7
17 -214 583 -282 775 -11 30 -26 67 -35 83 -21 42 -82 98 -129 119 -42 18
-133 30 -169 21z"/>
<path d="M3705 5883 c-170 -63 -317 -116 -325 -118 -33 -9 -232 -86 -262 -101
-44 -23 -92 -76 -118 -132 -37 -78 -31 -153 25 -302 90 -242 114 -308 231
-630 64 -179 125 -343 135 -365 24 -51 53 -84 104 -118 54 -37 66 -36 53 6
-47 149 -65 334 -45 452 22 123 139 276 258 333 85 41 138 52 249 49 93 -3
112 -7 170 -34 36 -17 84 -47 108 -68 66 -58 149 -182 197 -295 10 -25 29 -69
42 -98 13 -29 23 -57 23 -62 0 -15 5 -14 157 41 196 71 261 131 281 260 11 72
7 86 -157 534 l-138 379 -129 56 c-220 96 -375 190 -499 302 -16 16 -34 27
-40 27 -5 -1 -149 -53 -320 -116z"/>
<path d="M8279 5593 c-41 -13 -81 -27 -89 -30 -8 -3 -19 -7 -25 -9 -5 -1 -39
-14 -75 -27 -36 -14 -134 -50 -219 -81 -85 -31 -156 -58 -158 -60 -2 -2 9 -25
24 -52 48 -83 101 -218 117 -300 3 -10 9 -39 14 -64 24 -105 34 -216 34 -370
-1 -176 -14 -292 -53 -445 -40 -155 -125 -346 -215 -480 -31 -46 -33 -51 -17
-62 9 -7 45 -13 81 -13 59 0 111 17 576 185 281 102 545 200 586 216 85 35
130 77 166 154 46 98 43 113 -141 618 -91 248 -167 459 -169 467 -9 34 -77
207 -93 234 -40 71 -110 121 -184 132 -24 3 -54 7 -65 9 -12 2 -54 -8 -95 -22z"/>
<path d="M4857 5552 c-7 -12 250 -701 274 -737 29 -43 91 -88 142 -105 47 -15
133 -15 173 0 16 7 36 13 44 15 8 2 107 38 220 80 113 42 216 80 230 85 14 4
108 38 210 75 102 38 206 75 232 84 25 9 49 19 52 22 11 11 -164 90 -296 134
-108 35 -391 114 -466 130 -180 37 -702 178 -778 210 -18 7 -35 11 -37 7z"/>
<path d="M2561 5462 c-13 -2 -116 -37 -230 -79 -113 -41 -255 -93 -316 -115
-60 -22 -159 -58 -220 -80 -60 -22 -121 -44 -135 -48 -269 -91 -328 -127 -375
-231 -47 -107 -45 -116 183 -740 110 -301 207 -560 216 -577 43 -83 129 -135
232 -138 66 -3 84 2 275 72 112 41 247 90 299 108 52 19 113 41 135 49 22 9
83 31 135 50 418 151 436 161 486 263 43 89 38 156 -24 324 -28 74 -69 187
-92 250 -22 63 -44 122 -47 130 -3 8 -7 20 -9 25 -1 6 -16 46 -32 90 -17 44
-56 150 -87 235 -103 284 -104 286 -147 329 -67 66 -159 97 -247 83z"/>
<path d="M6445 4929 c-60 -22 -126 -46 -145 -54 -19 -7 -75 -28 -125 -46 -49
-17 -103 -37 -120 -44 -16 -6 -66 -24 -110 -39 -44 -15 -89 -31 -100 -36 -11
-4 -45 -17 -75 -28 -315 -116 -314 -116 -362 -160 -32 -30 -54 -62 -69 -101
-30 -80 -23 -147 36 -306 26 -72 70 -191 97 -265 27 -74 54 -147 60 -162 11
-30 19 -32 178 -28 395 9 691 123 900 347 77 82 147 211 170 310 38 168 7 380
-76 510 -40 64 -116 143 -135 142 -8 0 -63 -18 -124 -40z"/>
<path d="M10686 4512 c-15 -2 -152 -49 -305 -104 -152 -55 -316 -115 -366
-133 -519 -188 -521 -189 -571 -247 -41 -50 -65 -111 -65 -170 0 -65 4 -86 35
-168 13 -36 103 -282 199 -547 97 -265 184 -494 193 -510 52 -82 127 -126 224
-131 66 -3 64 -4 280 73 25 9 52 18 60 22 8 3 20 7 25 9 14 4 177 63 195 71 8
3 20 7 25 9 75 20 630 232 657 251 106 72 145 204 100 338 -85 251 -398 1087
-418 1118 -54 82 -167 132 -268 119z"/>
<path d="M4910 4362 c-20 -2 -277 -90 -288 -98 -6 -4 30 -69 94 -165 126 -191
326 -335 550 -394 93 -24 124 -28 124 -14 0 25 -184 515 -207 552 -52 83 -168
134 -273 119z"/>
<path d="M8515 3730 c-737 -269 -715 -260 -758 -299 -60 -54 -90 -122 -91
-206 0 -66 10 -98 193 -600 106 -291 206 -558 222 -592 46 -95 125 -149 231
-157 55 -5 137 18 308 84 41 16 257 95 480 176 223 80 418 153 433 161 47 24
105 92 126 146 35 93 26 134 -109 502 -67 182 -122 335 -124 340 -2 6 -6 17
-9 25 -3 8 -41 111 -83 228 -63 173 -84 221 -115 256 -51 57 -117 88 -199 93
-63 3 -79 -2 -505 -157z"/>
<path d="M3630 3814 c-17 -33 -23 -64 -23 -112 0 -62 15 -107 202 -620 110
-304 210 -570 221 -591 46 -91 155 -148 264 -138 50 4 242 67 391 127 35 14
122 46 447 164 175 63 330 122 345 130 33 19 77 55 72 60 -2 2 -51 6 -109 10
-58 3 -116 8 -130 10 -14 3 -50 7 -80 10 -320 36 -676 153 -920 303 -235 145
-455 368 -600 609 -28 46 -53 84 -55 84 -2 0 -13 -21 -25 -46z"/>
<path d="M3050 3693 c-63 -24 -151 -56 -195 -71 -417 -149 -816 -298 -840
-315 -46 -31 -75 -67 -102 -124 -47 -101 -48 -97 182 -729 113 -313 217 -586
230 -606 49 -75 136 -121 230 -121 53 0 121 22 615 202 305 111 570 209 588
219 87 45 145 143 144 246 0 50 -12 95 -72 256 -39 107 -78 215 -86 240 -8 25
-19 54 -24 65 -5 11 -37 97 -70 190 -174 482 -174 483 -239 534 -95 75 -188
79 -361 14z"/>
<path d="M7252 3262 c-13 -2 -61 -27 -105 -57 -98 -63 -273 -151 -377 -190
-41 -15 -84 -31 -95 -35 -24 -10 -104 -34 -165 -50 -53 -15 -36 -11 -190 -39
-69 -12 -148 -27 -177 -32 -106 -20 -193 -136 -193 -256 0 -54 12 -96 76 -276
42 -116 86 -239 99 -272 13 -33 71 -191 130 -352 58 -161 114 -308 126 -327
42 -71 127 -118 222 -122 56 -2 83 3 160 30 51 19 182 66 292 106 110 39 209
75 220 80 31 13 350 130 485 177 154 54 230 192 190 345 -13 51 -192 554 -245
688 -29 74 -77 206 -80 220 -14 64 -93 238 -123 272 -62 68 -162 104 -250 90z"/>
<path d="M5485 2626 c-52 -17 -354 -127 -400 -146 -11 -5 -166 -61 -345 -126
-361 -130 -382 -139 -426 -183 -66 -65 -99 -192 -72 -275 15 -46 88 -248 98
-271 5 -11 48 -128 96 -260 141 -392 161 -447 187 -518 13 -37 35 -83 48 -103
47 -69 158 -123 244 -118 46 3 73 11 160 45 44 17 87 32 95 34 13 3 557 201
829 302 51 19 110 45 131 59 78 52 122 149 115 253 -1 28 -54 186 -135 406
-72 198 -138 380 -146 405 -8 25 -19 54 -24 65 -5 11 -30 79 -55 150 -26 72
-58 148 -72 171 -29 46 -100 99 -153 114 -47 13 -126 11 -175 -4z"/>
<path d="M3790 2006 c-43 -12 -423 -147 -465 -166 -19 -9 -275 -101 -495 -180
-187 -66 -239 -100 -279 -178 -49 -97 -44 -156 29 -356 33 -91 60 -167 60
-171 0 -4 6 -21 14 -38 8 -18 29 -72 46 -122 18 -49 47 -130 65 -180 18 -49
64 -173 100 -275 42 -115 79 -201 99 -226 57 -76 154 -120 245 -111 35 4 737
250 872 306 13 6 82 31 152 56 154 54 175 65 217 107 51 50 80 122 80 196 0
54 -12 97 -85 300 -47 130 -92 253 -100 272 -26 66 -77 205 -79 215 -1 6 -11
35 -23 65 -12 30 -42 111 -66 180 -64 177 -71 191 -112 232 -72 71 -178 100
-275 74z"/>
</g>
</svg>
